HIERARCHY
ROOT Hips
{
  OFFSET 5.84602e-005 68.8428 3.50346
  CHANNELS 6 Xposition Yposition Zposition Zrotation Xrotation Yrotation
  JOINT Spine
  {
    OFFSET 0 8.597 -4.6522
    CHANNELS 3 Zrotation Xrotation Yrotation
    JOINT Spine1
    {
      OFFSET 0 7.8454 0.4098
      CHANNELS 3 Zrotation Xrotation Yrotation
      JOINT Spine2
      {
        OFFSET 0 9.7078 -2.1609
        CHANNELS 3 Zrotation Xrotation Yrotation
        JOINT Neck
        {
          OFFSET 0 21.8761 -0.4549
          CHANNELS 3 Zrotation Xrotation Yrotation
          JOINT Head
          {
            OFFSET 0 12.3537 3.3602
            CHANNELS 3 Zrotation Xrotation Yrotation
            End Site
            {
              OFFSET 0.0001 18.9506 0.5657
            }
          }
        }
        JOINT LeftShoulder
        {
          OFFSET 2.2086 21.1115 7.2329
          CHANNELS 3 Zrotation Xrotation Yrotation
          JOINT LeftArm
          {
            OFFSET 13.1193 3.0282 -4.8998
            CHANNELS 3 Zrotation Xrotation Yrotation
            JOINT LeftForeArm
            {
              OFFSET 27.4081 -0.0973053 -0.2375
              CHANNELS 3 Zrotation Xrotation Yrotation
              JOINT LeftHand
              {
                OFFSET 22.8641 0.0662994 -0.1369
                CHANNELS 3 Zrotation Xrotation Yrotation
                JOINT LeftHandIndex1
                {
                  OFFSET 8.8614 0.775009 2.4612
                  CHANNELS 3 Zrotation Xrotation Yrotation
                  JOINT LeftHandIndex2
                  {
                    OFFSET 3.3146 -0.808304 0.5841
                    CHANNELS 3 Zrotation Xrotation Yrotation
                    JOINT LeftHandIndex3
                    {
                      OFFSET 2.2628 -0.552002 0.3989
                      CHANNELS 3 Zrotation Xrotation Yrotation
                      End Site
                      {
                        OFFSET 1.6102 -0.4807 0.2612
                      }
                    }
                  }
                }
                JOINT LeftHandMiddle1
                {
                  OFFSET 8.9937 0.895004 0.2143
                  CHANNELS 3 Zrotation Xrotation Yrotation
                  JOINT LeftHandMiddle2
                  {
                    OFFSET 4.0984 0.0113983 -0.0242
                    CHANNELS 3 Zrotation Xrotation Yrotation
                    JOINT LeftHandMiddle3
                    {
                      OFFSET 2.2716 0.00689697 -0.0138001
                      CHANNELS 3 Zrotation Xrotation Yrotation
                      End Site
                      {
                        OFFSET 2.0404 -0.1441 0.0027
                      }
                    }
                  }
                }
                JOINT LeftHandRing1
                {
                  OFFSET 8.5234 0.597198 -2.0164
                  CHANNELS 3 Zrotation Xrotation Yrotation
                  JOINT LeftHandRing2
                  {
                    OFFSET 3.7188 -0.188293 -0.2328
                    CHANNELS 3 Zrotation Xrotation Yrotation
                    JOINT LeftHandRing3
                    {
                      OFFSET 2.1191 -0.106598 -0.1332
                      CHANNELS 3 Zrotation Xrotation Yrotation
                      End Site
                      {
                        OFFSET 1.8737 -0.2304 -0.0886
                      }
                    }
                  }
                }
                JOINT LeftHandPinky1
                {
                  OFFSET 7.9094 -0.601089 -3.4825
                  CHANNELS 3 Zrotation Xrotation Yrotation
                  JOINT LeftHandPinky2
                  {
                    OFFSET 2.2874 -0.477005 -0.6314
                    CHANNELS 3 Zrotation Xrotation Yrotation
                    JOINT LeftHandPinky3
                    {
                      OFFSET 1.6774 -0.349396 -0.4633
                      CHANNELS 3 Zrotation Xrotation Yrotation
                      End Site
                      {
                        OFFSET 1.4888 -0.4091 -0.3416
                      }
                    }
                  }
                }
                JOINT LeftHandThumb1
                {
                  OFFSET 1.833 -1.3875 1.3896
                  CHANNELS 3 Zrotation Xrotation Yrotation
                  JOINT LeftHandThumb2
                  {
                    OFFSET 3.4129 -1.121 2.5732
                    CHANNELS 3 Zrotation Xrotation Yrotation
                    JOINT LeftHandThumb3
                    {
                      OFFSET 2.2474 -0.804199 1.6192
                      CHANNELS 3 Zrotation Xrotation Yrotation
                      End Site
                      {
                        OFFSET 1.6527 -0.5689 1.1317
                      }
                    }
                  }
                }
              }
            }
          }
        }
        JOINT RightShoulder
        {
          OFFSET -2.2086 21.1115 7.2329
          CHANNELS 3 Zrotation Xrotation Yrotation
          JOINT RightArm
          {
            OFFSET -13.1216 3.0287 -4.9007
            CHANNELS 3 Zrotation Xrotation Yrotation
            JOINT RightForeArm
            {
              OFFSET -27.4081 -0.0973053 -0.2375
              CHANNELS 3 Zrotation Xrotation Yrotation
              JOINT RightHand
              {
                OFFSET -22.8641 0.0664063 -0.1369
                CHANNELS 3 Zrotation Xrotation Yrotation
                JOINT RightHandIndex1
                {
                  OFFSET -8.8614 0.774994 2.4612
                  CHANNELS 3 Zrotation Xrotation Yrotation
                  JOINT RightHandIndex2
                  {
                    OFFSET -3.3146 -0.808304 0.5841
                    CHANNELS 3 Zrotation Xrotation Yrotation
                    JOINT RightHandIndex3
                    {
                      OFFSET -2.2628 -0.552002 0.3989
                      CHANNELS 3 Zrotation Xrotation Yrotation
                      End Site
                      {
                        OFFSET -1.6102 -0.4807 0.2612
                      }
                    }
                  }
                }
                JOINT RightHandMiddle1
                {
                  OFFSET -8.9937 0.894989 0.2143
                  CHANNELS 3 Zrotation Xrotation Yrotation
                  JOINT RightHandMiddle2
                  {
                    OFFSET -4.0984 0.0113983 -0.0242
                    CHANNELS 3 Zrotation Xrotation Yrotation
                    JOINT RightHandMiddle3
                    {
                      OFFSET -2.2716 0.00691223 -0.0138001
                      CHANNELS 3 Zrotation Xrotation Yrotation
                      End Site
                      {
                        OFFSET -2.0404 -0.1441 0.0027
                      }
                    }
                  }
                }
                JOINT RightHandRing1
                {
                  OFFSET -8.5234 0.597198 -2.0164
                  CHANNELS 3 Zrotation Xrotation Yrotation
                  JOINT RightHandRing2
                  {
                    OFFSET -3.7188 -0.188309 -0.2328
                    CHANNELS 3 Zrotation Xrotation Yrotation
                    JOINT RightHandRing3
                    {
                      OFFSET -2.1191 -0.106598 -0.1332
                      CHANNELS 3 Zrotation Xrotation Yrotation
                      End Site
                      {
                        OFFSET -1.8737 -0.2304 -0.0886
                      }
                    }
                  }
                }
                JOINT RightHandPinky1
                {
                  OFFSET -7.9094 -0.601105 -3.4825
                  CHANNELS 3 Zrotation Xrotation Yrotation
                  JOINT RightHandPinky2
                  {
                    OFFSET -2.2874 -0.477005 -0.6314
                    CHANNELS 3 Zrotation Xrotation Yrotation
                    JOINT RightHandPinky3
                    {
                      OFFSET -1.6774 -0.349396 -0.4633
                      CHANNELS 3 Zrotation Xrotation Yrotation
                      End Site
                      {
                        OFFSET -1.4888 -0.4091 -0.3416
                      }
                    }
                  }
                }
                JOINT RightHandThumb1
                {
                  OFFSET -1.833 -1.38751 1.3896
                  CHANNELS 3 Zrotation Xrotation Yrotation
                  JOINT RightHandThumb2
                  {
                    OFFSET -3.41299 -1.12099 2.5732
                    CHANNELS 3 Zrotation Xrotation Yrotation
                    JOINT RightHandThumb3
                    {
                      OFFSET -2.24741 -0.804108 1.6192
                      CHANNELS 3 Zrotation Xrotation Yrotation
                      End Site
                      {
                        OFFSET -1.6527 -0.5689 1.1317
                      }
                    }
                  }
                }
              }
            }
          }
        }
      }
    }
  }
  JOINT RightUpLeg
  {
    OFFSET -9.1966 3.8861 -0.7581
    CHANNELS 3 Zrotation Xrotation Yrotation
    JOINT RightLeg
    {
      OFFSET -0.7359 -41.0265 0
      CHANNELS 3 Zrotation Xrotation Yrotation
      JOINT RightFoot
      {
        OFFSET 0 -40.2855 0
        CHANNELS 3 Zrotation Xrotation Yrotation
        JOINT RightToeBase
        {
          OFFSET 0 -5.6122 11.7359
          CHANNELS 3 Zrotation Xrotation Yrotation
          End Site
          {
            OFFSET 0 0 7.8731
          }
        }
      }
    }
  }
  JOINT LeftUpLeg
  {
    OFFSET 9.1965 3.8864 -0.7581
    CHANNELS 3 Zrotation Xrotation Yrotation
    JOINT LeftLeg
    {
      OFFSET 0.7359 -41.0268 0
      CHANNELS 3 Zrotation Xrotation Yrotation
      JOINT LeftFoot
      {
        OFFSET 0 -40.2855 0
        CHANNELS 3 Zrotation Xrotation Yrotation
        JOINT LeftToeBase
        {
          OFFSET 0 -5.6122 11.7359
          CHANNELS 3 Zrotation Xrotation Yrotation
          End Site
          {
            OFFSET 0 0 7.8731
          }
        }
      }
    }
  }
}
MOTION
Frames:	4
Frame Time:	0.0333333
-0.00557944 67.871 -0.109968 0 22.2969 -0 -0.24765 1.53856 -0.179993 -0.490728 3.07787 -0.353521 -0.490728 3.07788 -0.353521 -7.41016e-007 6.99711 6.73917e-006 1.44553e-007 9.90092 -9.49016e-008 5.39002 13.3704 5.14552 -77.9122 -1.94219 1.38702 -25.8456 6.04519 0.124474 3.75869 5.72426 -28.5189 -2.73329e-016 0 -1.59028e-015 4.47266e-016 0 -1.59028e-015 3.23025e-016 -1.98785e-016 -1.59028e-015 -2.73329e-016 0 -1.59028e-015 -0.0146374 -8.77532e-005 -6.86189e-007 6.00465e-007 -9.12427e-008 2.4502e-008 -2.73329e-016 0 -1.59028e-015 -0.0187776 -0.00117814 5.80858e-005 1.51573e-015 7.95139e-016 -3.18055e-015 -2.73329e-016 0 -1.59028e-015 -0.0122853 -0.00325466 0.000678096 9.44227e-016 9.93923e-017 3.18055e-015 -2.73329e-016 0 -1.59028e-015 4.47266e-016 0 -1.59028e-015 3.23025e-016 -1.98785e-016 -1.59028e-015 2.55148 3.24568 7.0404 72.6378 29.8421 21.126 0.128984 8.10137 37.2687 -2.58527 -29.7667 -3.6744 -3.54401e-008 -1.2061e-007 1.72477e-007 9.54166e-015 -3.18055e-015 -4.77083e-015 -8.86002e-008 -3.01524e-007 4.31192e-007 -3.54401e-008 -1.2061e-007 1.72477e-007 0.014991 -9.22609e-005 -2.18653e-007 -8.85989e-008 -3.01468e-007 4.31232e-007 -3.54401e-008 -1.2061e-007 1.72477e-007 0.0189899 -0.00119142 -5.80849e-005 -8.85944e-008 -3.01453e-007 4.31243e-007 -3.54401e-008 -1.2061e-007 1.72477e-007 0.0122745 -0.00324791 -0.000673573 -8.85855e-008 -3.01479e-007 4.31227e-007 -3.54401e-008 -1.2061e-007 1.72477e-007 9.54166e-015 -3.18055e-015 -4.77083e-015 -8.86002e-008 -3.01524e-007 4.31192e-007 0.915837 -21.0404 -14.5399 -126.38 82.1782 124.673 11.5002 27.7187 -14.1194 -2.26836e-006 -1.99487e-007 -7.36301e-007 -0.805148 -21.4178 14.2023 89.2841 83.0181 -88.0999 -29.0212 55.4038 49.4182 2.66627e-007 -1.26091e-006 -4.87927e-007 
-0.0055681 67.8741 0.0665742 0 21.7712 -0 -0.248883 1.96821 -0.179581 -0.492025 3.93717 -0.350911 -0.492025 3.93718 -0.350911 5.37406e-006 6.99699 4.17772e-006 -5.54489e-010 10.5772 -1.90683e-007 5.2002 12.0274 5.03376 -77.9122 -1.9422 1.38701 -25.5771 5.93475 0.125065 3.54139 5.41756 -28.5426 3.72721e-016 -5.96354e-016 4.77083e-015 4.96962e-016 -5.96354e-016 4.77083e-015 6.21202e-016 -6.95746e-016 3.18055e-015 3.72721e-016 -5.96354e-016 4.77083e-015 -0.0146276 -8.85645e-005 -1.45193e-006 7.95139e-016 0 3.18055e-015 3.72721e-016 -5.96354e-016 4.77083e-015 -0.0187679 -0.00117572 5.78498e-005 1.78906e-015 -2.98177e-016 -0 3.72721e-016 -5.96354e-016 4.77083e-015 -0.0122538 -0.00324723 0.000673041 -4.96962e-017 1.98785e-016 -1.59028e-015 3.72721e-016 -5.96354e-016 4.77083e-015 4.96962e-016 -5.96354e-016 4.77083e-015 6.21202e-016 -6.95746e-016 3.18055e-015 3.28162 2.84862 7.08069 71.0461 29.6412 22.1568 0.108848 8.12754 37.2715 -1.57876 -28.9274 -2.52446 -3.74327e-008 -1.19273e-007 1.7297e-007 2.04295e-006 2.60861e-007 9.32466e-007 1.6615e-006 -1.81653e-006 -3.02584e-007 -3.74327e-008 -1.19273e-007 1.7297e-007 0.0149778 -8.90283e-005 1.92169e-006 -7.48643e-008 -2.38501e-007 3.45972e-007 -3.74327e-008 -1.19273e-007 1.7297e-007 0.0189992 -0.00119417 -6.22337e-005 -7.48606e-008 -2.38489e-007 3.45981e-007 -3.74327e-008 -1.19273e-007 1.7297e-007 0.0122618 -0.00324379 -0.000674603 -7.48535e-008 -2.3851e-007 3.45968e-007 -3.74327e-008 -1.19273e-007 1.7297e-007 2.04295e-006 2.60861e-007 9.32466e-007 1.6615e-006 -1.81653e-006 -3.02584e-007 0.95468 -20.3209 -14.4809 -126.15 82.2055 124.448 11.4992 27.7178 -14.1177 -7.64152e-007 -2.6026e-007 -1.50345e-006 -0.835343 -20.6948 14.1527 88.9197 83.0216 -87.7397 -29.019 55.4047 49.4159 1.882e-007 1.62218e-006 3.50014e-007 
-0.00555472 67.8779 0.243052 0 21.2456 -0 -0.250002 2.3963 -0.179106 -0.493146 4.79341 -0.348192 -0.493146 4.79342 -0.348192 1.00317e-005 6.99669 -4.25924e-006 -1.32057e-007 11.2533 -2.52624e-007 5.00872 10.6856 4.91807 -77.9122 -1.94219 1.38701 -25.308 5.82607 0.12564 3.324 5.11101 -28.5675 1.98785e-016 0 1.59028e-015 -1.2424e-015 -7.95139e-016 1.59028e-015 -1.83876e-015 -5.96354e-016 1.59028e-015 1.98785e-016 0 1.59028e-015 -0.0145942 -8.8226e-005 8.97049e-007 6.95746e-016 0 -1.59028e-015 1.98785e-016 0 1.59028e-015 -0.0187493 -0.00117552 6.12372e-005 -5.96354e-016 -3.97569e-016 1.59028e-015 1.98785e-016 0 1.59028e-015 -0.0122909 -0.00325082 0.000674444 5.96354e-016 -3.97569e-016 3.18055e-015 1.98785e-016 0 1.59028e-015 -1.2424e-015 -7.95139e-016 1.59028e-015 -1.83876e-015 -5.96354e-016 1.59028e-015 4.01161 2.45227 7.12601 69.4633 29.4156 23.1778 0.0887366 8.15376 37.2744 -0.600253 -28.0715 -1.40138 -4.48642e-008 -1.62336e-006 -5.96496e-007 3.94086e-008 1.17922e-007 -1.7344e-007 -2.02499e-007 -2.09505e-006 9.72641e-008 -4.48642e-008 -1.62336e-006 -5.96496e-007 0.014986 -9.12767e-005 -1.4525e-006 -2.02454e-007 -2.09504e-006 9.75383e-008 -4.48642e-008 -1.62336e-006 -5.96496e-007 0.0189894 -0.00118937 -6.13525e-005 -2.0244e-007 -2.09504e-006 9.76132e-008 -4.48642e-008 -1.62336e-006 -5.96496e-007 0.0122841 -0.00325122 -0.000677528 -2.02447e-007 -2.09505e-006 9.74924e-008 -4.48642e-008 -1.62336e-006 -5.96496e-007 3.94086e-008 1.17922e-007 -1.7344e-007 -2.02499e-007 -2.09505e-006 9.72641e-008 0.9926 -19.6015 -14.4226 -125.919 82.2326 124.221 11.4981 27.7169 -14.116 1.90569e-007 6.48753e-008 3.76141e-007 -0.864768 -19.9717 14.1037 88.5544 83.0249 -87.3786 -29.0167 55.4056 49.4136 4.58058e-006 6.66278e-007 -5.93501e-007 
-0.00554233 67.8823 0.419453 0 20.72 -0 -0.251011 2.82228 -0.178574 -0.494102 5.64536 -0.345379 -0.494102 5.64537 -0.345379 1.21644e-006 6.99677 2.30624e-006 -2.08866e-007 11.9293 1.07597e-007 4.81549 9.34548 4.79844 -77.9122 -1.9422 1.38701 -25.0384 5.7192 0.126236 3.10663 4.80457 -28.5935 -1.93815e-015 3.97569e-016 -1.59028e-015 -1.88845e-015 3.97569e-016 -1.59028e-015 -1.88845e-015 0 -6.36111e-015 -1.93815e-015 3.97569e-016 -1.59028e-015 -0.0146342 -8.88162e-005 -2.49378e-007 2.03754e-015 0 -1.59028e-015 -1.93815e-015 3.97569e-016 -1.59028e-015 -0.0187648 -0.0011748 5.74295e-005 5.37324e-007 -6.73189e-007 5.00354e-007 -1.93815e-015 3.97569e-016 -1.59028e-015 -0.0122437 -0.00324232 0.000670353 1.73937e-015 1.19271e-015 -3.18055e-015 -1.93815e-015 3.97569e-016 -1.59028e-015 -1.88845e-015 3.97569e-016 -1.59028e-015 -1.88845e-015 0 -6.36111e-015 4.74147 2.05658 7.17636 67.8906 29.166 24.1879 0.0686001 8.17992 37.2773 0.350605 -27.1999 -0.304755 4.13715e-008 1.16559e-007 -1.73884e-007 -1.24114e-007 -3.49676e-007 5.21652e-007 8.2743e-008 2.33117e-007 -3.47768e-007 4.13715e-008 1.16559e-007 -1.73884e-007 0.0150172 -9.18312e-005 -5.1104e-007 8.27414e-008 2.33072e-007 -3.47799e-007 4.13715e-008 1.16559e-007 -1.73884e-007 0.0189989 -0.00119182 -6.05531e-005 8.27375e-008 2.3306e-007 -3.47807e-007 4.13715e-008 1.16559e-007 -1.73884e-007 0.0122847 -0.00325143 -0.000676093 8.27306e-008 2.33081e-007 -3.47795e-007 4.13715e-008 1.16559e-007 -1.73884e-007 -1.24114e-007 -3.49676e-007 5.21652e-007 8.2743e-008 2.33117e-007 -3.47768e-007 1.02962 -18.8823 -14.3651 -125.687 82.2597 123.993 11.4971 27.716 -14.1143 3.80199e-007 1.29372e-007 7.52837e-007 -0.893438 -19.2489 14.0554 88.188 83.0278 -87.0163 -29.0145 55.4066 49.4113 -2.15032e-006 7.12805e-007 -2.08329e-006 
